# AST/ASF file generated using VICON BodyLanguage
# -----------------------------------------------
:version 1.10
:name VICON
:units
  mass 1.0
  length 0.45
  angle deg
:documentation
   .ast/.asf automatically generated from VICON data using
   VICON BodyBuilder and BodyLanguage model FoxedUp or BRILLIANT.MOD
:root
   order TX TY TZ RX RY RZ
   axis XYZ
   position 0 0 0  
   orientation 0 0 0 
:bonedata
  begin
     id 1 
     name lhipjoint
     direction 0.612567 -0.751349 0.245431 
     length 2.42285 
     axis 0 0 0  XYZ
  end
  begin
     id 2 
     name lfemur
     direction 0.34202 -0.939693 0  
     length 7.11304  
     axis 0 0 20  XYZ
    dof rx ry rz
    limits (-160.0 20.0)
           (-70.0 70.0)
           (-60.0 70.0)
  end
  begin
     id 3 
     name ltibia
     direction 0.34202 -0.939693 0   
     length 7.84529   
     axis 0 0 20   XYZ
    dof rx
    limits (-10.0 170.0)
  end
  begin
     id 4 
     name lfoot
     direction 0.0779239 -0.214094 0.9737   
     length 1.97176   
     axis -90 7.62852e-016 20   XYZ
    dof rx rz
    limits (-45.0 90.0)
           (-70.0 20.0)
  end
  begin
     id 5 
     name ltoes
     direction 1.53565e-011 -4.21709e-011 1   
     length 0.993197   
     axis -90 7.62852e-016 20   XYZ
    dof rx
    limits (-90.0 20.0)
  end
  begin
     id 6 
     name rhipjoint
     direction -0.665722 -0.709315 0.231701   
     length 2.56642  
     axis 0 0 0  XYZ 
  end
  begin
     id 7 
     name rfemur
     direction -0.34202 -0.939693 0   
     length 7.32108   
     axis 0 0 -20   XYZ
    dof rx ry rz
    limits (-160.0 20.0)
           (-70.0 70.0)
           (-70.0 60.0)
  end
  begin
     id 8 
     name rtibia
     direction -0.34202 -0.939693 0   
     length 7.81254   
     axis 0 0 -20   XYZ
    dof rx
    limits (-10.0 170.0)
 end
 begin
     id 9 
     name rfoot
     direction -0.0832806 -0.228812 0.969902   
     length 2.08278  
     axis -90 -7.62852e-016 -20   XYZ
    dof rx rz
    limits (-45.0 90.0)
           (-20.0 70.0)
  end
  begin
     id 10 
     name rtoes
     direction -1.53589e-011 -4.22086e-011 1   
     length 1.04609   
     axis -90 -7.62852e-016 -20   XYZ
    dof rx
    limits (-90.0 20.0)
  end
  begin
     id 11 
     name lowerback
     direction -0.00506013 0.988403 -0.151766   
     length 2.01978   
     axis 0 0 0   XYZ
    dof rx ry rz
    limits (-20.0 45.0)
           (-30.0 30.0)
           (-30.0 30.0)
  end
  begin
     id 12 
     name upperback
     direction -0.00836389 0.99968 0.0238859   
     length 2.01276   
     axis 0 0 0   XYZ
    dof rx ry rz
    limits (-20.0 45.0)
           (-30.0 30.0)
           (-30.0 30.0)
  end
  begin
     id 13 
     name thorax
     direction -0.00684136 0.995386 0.0957043   
     length 2.07303   
     axis 0 0 0   XYZ
    dof rx ry rz
    limits (-20.0 45.0)
           (-30.0 30.0)
           (-30.0 30.0)
  end
  begin
     id 14 
     name lowerneck
     direction -0.0161045 0.999661 0.0204485   
     length 1.91243   
     axis 0 0 0   XYZ
    dof rx ry rz
    limits (-20.0 45.0)
           (-30.0 30.0)
           (-30.0 30.0)
  end
  begin
     id 15 
     name upperneck
     direction 0.0553583 0.990946 -0.122319   
     length 1.91574   
     axis 0 0 0   XYZ
    dof rx ry rz
    limits (-20.0 45.0)
           (-30.0 30.0)
           (-30.0 30.0)
  end
  begin
     id 16
     name head
     direction 0.0180273 0.998839 -0.0446756  
     length 1.92693  
     axis 0 0 0   XYZ
    dof rx ry rz
    limits (-20.0 45.0)
           (-30.0 30.0)
           (-30.0 30.0)
  end
  begin
     id 17 
     name lclavicle
     direction 0.945646 0.319323 -0.0615358  
     length 4.0076  
     axis 0 0 0   XYZ
    dof ry rz
    limits (-20.0 10.0)
           (0.0 20.0)
  end
  begin
     id 18 
     name lhumerus
     direction 1 -4.48967e-011 -2.79996e-027   
     length 5.64147   
     axis 180 -30 -90   XYZ
    dof rx ry rz
    limits (-60.0 90.0)
           (-90.0 90.0)
           (-90.0 90.0)
  end
  begin
     id 19
     name lradius
     direction 1 -4.48976e-011 -9.5122e-027   
     length 2.86444   
     axis 180 -30 -90   XYZ
    dof rx
    limits (-10.0 170.0)
  end
  begin
     id 20
     name lwrist
     direction 1 -4.48983e-011 -1.24047e-026   
     length 1.43222   
     axis 9.05591e-015 90 90   XYZ
    dof ry
    limits (-180.0 0.0)
 end
  begin
     id 21 
     name lhand
     direction 1 -4.4892e-011 -2.48094e-026   
     length 0.722123   
     axis 1.58305e-014 90 90   XYZ
    dof rx rz
    limits (-90.0 90.0)
           (-45.0 45.0)
  end
  begin
     id 22 
     name lfingers
     direction 1 -4.48895e-011 -4.96187e-026   
     length 0.582194   
     axis 3.1661e-014 90 90   XYZ
    dof rx
    limits (0.0 90.0)
  end
  begin
     id 23
     name lthumb
     direction 0.707107 -6.34961e-011 0.707107   
     length 0.835918   
     axis -90 45 2.85299e-015   XYZ
    dof rx rz
    limits (-45.0 45.0)
           (-45.0 45.0)
  end
  begin
     id 24 
     name rclavicle
     direction -0.932635 0.324218 -0.15835   
     length 3.65819  
     axis 0 0 0   XYZ 
    dof ry rz
    limits (-10.0 20.0)
           (-20.0 0.0)
  end
  begin
     id 25 
     name rhumerus
     direction -1 -4.48965e-011 -4.02296e-027  
     length 5.44729   
     axis 180 30 90   XYZ
    dof rx ry rz
    limits (-90.0 60.0)
           (-90.0 90.0)
           (-90.0 90.0)
  end
  begin
     id 26 
     name rradius
     direction -1 -4.48957e-011 -8.81087e-027   
     length 3.08821   
     axis 180 30 90   XYZ
    dof rx
    limits (-10.0 170.0)
  end
  begin
     id 27 
     name rwrist
     direction -1 -4.49015e-011 -1.24047e-026   
     length 1.5441   
     axis 9.05591e-015 -90 -90   XYZ
    dof ry
    limits (-180.0 0.0)
  end
  begin
     id 28
     name rhand
     direction -1 -4.4891e-011 -2.48094e-026   
     length 0.821049   
     axis 1.58305e-014 -90 -90   XYZ
    dof rx rz
    limits (-90.0 90.0)
           (-45.0 45.0)
  end
  begin
     id 29
     name rfingers
     direction -1 -4.48985e-011 -4.96187e-026   
     length 0.661951   
     axis 3.1661e-014 -90 -90   XYZ
    dof rx
    limits (0.0 90.0)
  end
  begin
     id 30
     name rthumb
     direction -0.707107 -6.34906e-011 0.707107   
     length 0.950433   
     axis -90 -45 -2.85299e-015   XYZ
    dof rx rz
    limits (-45.0 45.0)
           (-45.0 45.0)
  end
:hierarchy
  begin
    root lhipjoint rhipjoint lowerback
    lhipjoint lfemur
    lfemur ltibia
    ltibia lfoot
    lfoot ltoes
    rhipjoint rfemur
    rfemur rtibia
    rtibia rfoot
    rfoot rtoes
    lowerback upperback
    upperback thorax
    thorax lowerneck lclavicle rclavicle
    lowerneck upperneck
    upperneck head
    lclavicle lhumerus
    lhumerus lradius
    lradius lwrist
    lwrist lhand lthumb
    lhand lfingers
    rclavicle rhumerus
    rhumerus rradius
    rradius rwrist
    rwrist rhand rthumb
    rhand rfingers
  end

#!OML:ASF F:\VICON\USERDATA\INSTALL\rory3\rory3.ASF
:FULLY-SPECIFIED
:DEGREES
2950
root 3.69386 17.5963 -0.578561 546.422 83.268 547.45
lowerback 4.321 1.61375 4.19532
upperback -4.3893 2.64234 1.43049
thorax -6.89757 1.16163 -1.12382
lowerneck -4.62514 3.0553 -0.135641
upperneck 7.62227 3.4753 11.2862
head 3.11289 2.24405 3.97068
rclavicle -3.03147e-014 -1.51076e-014
rhumerus -15.4038 -30.1748 -42.8034
rradius 137.214
rwrist -14.5971
rhand -19.3866 2.75756
rfingers 7.12502
rthumb 6.93201 -27.1089
lclavicle -3.03147e-014 -1.51076e-014
lhumerus 1.55802 10.3749 49.1744
lradius 138.679
lwrist 36.3326
lhand -31.5764 -4.23617
lfingers 7.12502
lthumb -4.83971 25.6886
rfemur 4.11828 -1.50352 17.9718
rtibia 14.3081
rfoot -23.6148 -12.1076
rtoes -3.45526
lfemur -3.0915 -1.50812 -17.5089
ltibia 18.2657
lfoot -12.3739 -9.04589
ltoes 2.51673
2951
root 3.68937 17.5945 -0.589887 545.06 82.908 546.126
lowerback 4.41734 1.65048 4.39134
upperback -4.39361 2.71746 1.48218
thorax -6.94966 1.18961 -1.18984
lowerneck -4.52205 3.02155 0.00160168
upperneck 7.60186 3.42719 11.3477
head 3.09075 2.22601 3.96092
rclavicle 3.76697e-014 1.51076e-014
rhumerus -15.766 -29.8916 -42.7647
rradius 137.022
rwrist -11.454
rhand -19.538 3.31079
rfingers 7.12502
rthumb 6.78577 -26.5605
lclavicle 3.76697e-014 1.51076e-014
lhumerus 1.36004 10.2506 49.0507
lradius 138.751
lwrist 36.3012
lhand -31.9498 -4.56608
lfingers 7.12502
lthumb -5.20028 25.3501
rfemur 4.2452 -1.68811 17.8127
rtibia 14.2707
rfoot -23.7157 -12.2126
rtoes -3.53261
lfemur -3.14214 -1.62374 -17.6817
ltibia 18.3126
lfoot -12.3052 -9.26618
ltoes 2.85687
2952
root 3.68512 17.5934 -0.599055 545.043 82.5685 546.152
lowerback 4.46205 1.70945 4.68912
upperback -4.36729 2.83186 1.60393
thorax -6.93642 1.23625 -1.24083
lowerneck -4.59745 2.95386 -0.0271692
upperneck 7.97808 3.27433 11.8305
head 2.92071 2.20756 3.7157
rclavicle 2.56432e-014 2.38542e-015
rhumerus -16.127 -29.6926 -42.5895
rradius 136.846
rwrist -8.61329
rhand -19.8196 3.95935
rfingers 7.12502
rthumb 6.51399 -25.9205
lclavicle 2.56432e-014 2.38542e-015
lhumerus 1.23884 10.1362 49.0561
lradius 138.595
lwrist 34.9576
lhand -32.1362 -5.00125
lfingers 7.12502
lthumb -5.38019 24.9104
rfemur 4.36027 -1.72187 17.8633
rtibia 14.2342
rfoot -23.9144 -12.3799
rtoes -3.43719
lfemur -3.20804 -1.72088 -17.6672
ltibia 18.3762
lfoot -12.1908 -9.46654
ltoes 3.33238
2953
root 3.67933 17.5932 -0.607867 545.048 82.207 546.159
lowerback 4.27531 1.79608 4.89623
upperback -4.24377 2.96255 1.82222
thorax -6.69289 1.30576 -1.13149
lowerneck -4.75198 2.87843 -0.21823
upperneck 8.11749 3.16217 11.9415
head 2.98954 2.16178 3.7836
rclavicle 2.60408e-014 -1.59028e-015
rhumerus -16.2364 -29.6205 -42.3083
rradius 136.582
rwrist -6.06843
rhand -20.4586 4.48459
rfingers 7.12502
rthumb 5.89702 -25.4134
lclavicle 2.60408e-014 -1.59028e-015
lhumerus 1.23497 10.1799 49.3018
lradius 138.273
lwrist 32.7822
lhand -32.0219 -5.66317
lfingers 7.12502
lthumb -5.26983 24.2513
rfemur 4.40786 -1.7698 17.9069
rtibia 14.2546
rfoot -24.1449 -12.5513
rtoes -3.28949
lfemur -3.31057 -1.82568 -17.6556
ltibia 18.4293
lfoot -12.1151 -9.64744
ltoes 3.07983
2954
root 3.67022 17.5934 -0.615783 543.944 81.7574 545.036
lowerback 4.09192 1.85348 4.91362
upperback -4.13866 3.03898 2.02916
thorax -6.48196 1.35646 -0.923645
lowerneck -4.62783 2.8394 -0.337526
upperneck 8.01453 3.13176 11.9354
head 2.93744 2.13437 3.79549
rclavicle -7.35503e-015 9.54166e-015
rhumerus -16.2565 -29.5327 -42.1101
rradius 136.267
rwrist -4.23494
rhand -21.3596 5.1092
rfingers 7.12502
rthumb 5.02719 -24.8112
lclavicle -7.35503e-015 9.54166e-015
lhumerus 1.15695 10.2723 49.5563
lradius 137.945
lwrist 30.3379
lhand -31.7982 -6.72407
lfingers 7.12502
lthumb -5.05393 23.1957
rfemur 4.44996 -1.90823 17.777
rtibia 14.2868
rfoot -24.3727 -12.7475
rtoes -3.11129
lfemur -3.44635 -1.99615 -17.812
ltibia 18.4625
lfoot -11.9386 -9.91578
ltoes 3.36694
2955
root 3.65782 17.5932 -0.623585 542.723 81.3478 543.783
lowerback 4.19759 1.89669 5.04091
upperback -4.17811 3.12179 2.08045
thorax -6.57857 1.39091 -0.953339
lowerneck -4.42549 2.83563 -0.35642
upperneck 7.89423 3.14211 12.0883
head 2.86383 2.13703 3.83908
rclavicle -5.46658e-015 1.59028e-014
rhumerus -16.4782 -29.5737 -42.1084
rradius 136.217
rwrist -4.15713
rhand -21.3795 5.81258
rfingers 7.12502
rthumb 5.00789 -24.1082
lclavicle -5.46658e-015 1.59028e-014
lhumerus 0.989596 10.2904 49.5745
lradius 137.603
lwrist 28.1583
lhand -31.5678 -7.91287
lfingers 7.12502
lthumb -4.83141 22.012
rfemur 4.45715 -2.11023 17.5863
rtibia 14.3117
rfoot -24.4323 -12.9325
rtoes -3.40762
lfemur -3.58599 -2.15144 -18.015
ltibia 18.4721
lfoot -11.6878 -10.1207
ltoes 3.7636
2956
root 3.65083 17.5937 -0.631621 541.87 81.0334 542.904
lowerback 4.24411 1.95834 5.20467
upperback -4.19368 3.22618 2.12756
thorax -6.61233 1.43581 -1.0069
lowerneck -4.43619 2.8312 -0.346722
upperneck 7.98229 3.12373 12.24
head 2.89073 2.14151 3.88553
rclavicle 1.10325e-014 3.97569e-015
rhumerus -16.5407 -29.5941 -42.2671
rradius 136.33
rwrist -5.32513
rhand -21.1398 5.97461
rfingers 7.12502
rthumb 5.23938 -23.9406
lclavicle 1.10325e-014 3.97569e-015
lhumerus 0.823786 10.3163 49.5571
lradius 137.221
lwrist 26.2123
lhand -31.6085 -9.29934
lfingers 7.12502
lthumb -4.87067 20.6247
rfemur 4.4675 -2.21676 17.4468
rtibia 14.3343
rfoot -24.5059 -13.1259
rtoes -3.74663
lfemur -3.69248 -2.11661 -18.1574
ltibia 18.4814
lfoot -11.4932 -10.4018
ltoes 3.89545
2957
root 3.64735 17.5939 -0.639129 541.75 80.717 542.804
lowerback 4.20847 2.02128 5.41769
upperback -4.16881 3.335 2.26253
thorax -6.55811 1.4867 -0.99235
lowerneck -4.38433 2.80944 -0.266495
upperneck 8.02762 3.09203 12.18
head 2.90021 2.12693 3.85288
rclavicle -9.93923e-016 1.59028e-014
rhumerus -16.4913 -29.5415 -42.3404
rradius 136.427
rwrist -7.1117
rhand -21.4485 5.88342
rfingers 7.12502
rthumb 4.94129 -24.039
lclavicle -9.93923e-016 1.59028e-014
lhumerus 0.645551 10.3726 49.5762
lradius 136.937
lwrist 24.6755
lhand -31.7252 -10.6278
lfingers 7.12502
lthumb -4.98336 19.2936
rfemur 4.55851 -2.1727 17.4653
rtibia 14.3217
rfoot -24.6945 -13.3249
rtoes -3.676
lfemur -3.7668 -2.01959 -18.1542
ltibia 18.5316
lfoot -11.3826 -10.8125
ltoes 3.95364
2958
root 3.63842 17.5922 -0.645712 541.812 80.3267 542.945
lowerback 4.32185 2.0728 5.68699
upperback -4.14192 3.44437 2.40047
thorax -6.58519 1.53289 -1.01213
lowerneck -4.34274 2.74652 -0.209422
upperneck 8.05566 3.00704 12.1331
head 2.90901 2.08558 3.82627
rclavicle 2.68359e-014 -2.3059e-014
rhumerus -16.3717 -29.8645 -42.2639
rradius 136.798
rwrist -10.2279
rhand -20.9343 5.37016
rfingers 7.12502
rthumb 5.43774 -24.5401
lclavicle 2.68359e-014 -2.3059e-014
lhumerus 0.527593 10.4258 49.5967
lradius 136.829
lwrist 23.9016
lhand -31.566 -11.3837
lfingers 7.12502
lthumb -4.82968 18.5413
rfemur 4.71235 -2.12305 17.5392
rtibia 14.2745
rfoot -24.888 -13.649
rtoes -3.9326
lfemur -3.83555 -2.02996 -18.1279
ltibia 18.6171
lfoot -11.2472 -11.1541
ltoes 3.84545
